<svg width="8793" height="2242" viewBox="0 0 8793 2242" fill="none" xmlns="http://www.w3.org/2000/svg">
<path d="M3324.07 180H2727.86C2660.15 180 2603 237.088 2603 304.684V1699.32C2603 1766.91 2660.2 1824 2727.86 1824C2795.51 1824 2855.01 1768.06 2855.01 1699.32V1205.89H3258.5L3695.68 1762.96C3734.25 1813.39 3778.49 1823.95 3808.8 1823.95C3876.51 1823.95 3935.95 1766.71 3935.95 1701.52C3935.95 1661.39 3914.57 1632.57 3898.09 1614.21L3537.55 1159.06C3647.15 1130.24 3739.15 1080.6 3805.89 1013.96C3892.22 927.701 3936 816.726 3936 683.987V679.534C3936 549.197 3888.6 430.918 3802.52 346.562C3692.97 239.14 3523.06 180 3324.12 180H3324.07ZM3681.59 690.742C3681.59 864.408 3535 976.633 3308.1 976.633H2854.96V413.756H3310.34C3546.23 413.756 3681.54 513.073 3681.54 686.239V690.691L3681.59 690.742Z" fill="#0EE5F2"/>
<path d="M5157.66 575C5087.85 575 5035.21 627.627 5035.21 697.413V1281.96C5035.21 1473.91 4905.18 1607.98 4719.04 1607.98C4532.9 1607.98 4430.13 1494.02 4430.13 1295.37V697.413C4430.13 629.928 4374.18 575 4305.44 575C4236.71 575 4183 627.627 4183 697.413V1337.74C4183 1639.8 4373.77 1835 4669 1835C4819.12 1835 4939.83 1784.27 5035.16 1680.57V1699.18C5035.16 1767.82 5088.92 1821.59 5157.61 1821.59C5226.29 1821.59 5280 1767.82 5280 1699.18V697.413C5280 628.778 5226.24 575 5157.61 575H5157.66Z" fill="#0EE5F2"/>
<path d="M6158.65 809.421C6222.25 809.421 6274 759.605 6274 698.408C6274 637.211 6221.18 587.395 6158.65 587.395H5890.84V351.144C5890.84 284.906 5833.86 229 5766.45 229C5699.04 229 5644.29 282.66 5644.29 351.144V587.395H5585.06C5522.68 587.395 5472 637.211 5472 698.408C5472 759.605 5524.82 809.421 5585.06 809.421H5644.29V1468.66C5644.29 1697.67 5778.04 1829 6011.33 1829C6080.62 1829 6139.64 1818.32 6196.93 1795.36C6241.72 1778.29 6269.48 1740.15 6269.48 1695.73C6269.48 1635.73 6219.76 1586.91 6158.65 1586.91C6149.65 1586.91 6141.21 1589.1 6130.49 1591.85C6113.97 1596.09 6089.06 1602.53 6052.1 1602.53C5940.56 1602.53 5890.84 1554.36 5890.84 1446.45V809.471H6158.65V809.421Z" fill="#0EE5F2"/>
<path d="M6976.06 564C6810.16 564 6657.49 630.457 6546.11 751.111C6437.07 869.263 6377 1028.6 6377 1199.8V1204.25C6377 1383.41 6441.75 1546.4 6559.4 1663.25C6674.14 1777.25 6830.16 1840 6998.76 1840C7187.01 1840 7331.13 1783.45 7465.88 1656.59C7490.97 1634.72 7504.77 1605.65 7504.77 1574.72C7504.77 1514.57 7453.97 1465.63 7391.56 1465.63C7365.64 1465.63 7341.77 1474.89 7318.56 1493.95L7317.23 1495.1C7223.41 1580.08 7123.64 1619.66 7003.35 1619.66C6907.69 1619.66 6818.46 1586.88 6752.08 1527.38C6689.21 1471.03 6647.92 1392.96 6631.38 1299.93H7439.25C7504.21 1299.93 7557 1247.99 7557 1184.18C7557 1019.99 7503.5 867.362 7406.32 754.314C7299.31 629.857 7150.57 564.05 6976.11 564.05L6976.06 564ZM7305.57 1101.86H6631.38C6665.23 910.399 6800.79 779.936 6971.53 779.936C7181.62 779.936 7280.22 939.774 7305.57 1101.86Z" fill="#0EE5F2"/>
<path d="M8661.79 707.591C8568.66 616.298 8432.09 570 8255.95 570C8112.59 570 7989.55 594.926 7857.22 650.833C7823.42 664.347 7787.17 702.586 7787.17 754.94C7787.17 814.101 7839.19 864.052 7900.72 864.052C7914.7 864.052 7930.79 860.799 7946 854.843L7947.33 854.292C8041.88 812.8 8136.9 792.629 8237.68 792.629C8379.92 792.629 8549.21 840.227 8552.17 1065.91C8469.47 1045.44 8366.34 1027.57 8226.34 1027.57C8068.69 1027.57 7935.69 1062.81 7841.7 1129.42C7740.51 1201.2 7687 1307.16 7687 1435.74V1440.19C7687 1699.41 7926.24 1835 8162.58 1835C8344.74 1835 8469.62 1767.53 8552.22 1692.4V1705.82C8552.22 1771.84 8603.99 1821.59 8672.61 1821.59C8741.23 1821.59 8793 1769.88 8793 1701.31V1069.61C8793 914.704 8748.84 792.879 8661.74 707.491L8661.79 707.591ZM8554.52 1266.27V1351C8554.52 1508.97 8400.7 1628.09 8196.73 1628.09C8018.19 1628.09 7936.86 1527.28 7936.86 1433.59V1429.13C7936.86 1367.87 7961.83 1319.07 8011.04 1283.98C8064.5 1245.89 8145.27 1225.72 8244.52 1225.72C8348.82 1225.72 8450.47 1239.04 8554.47 1266.32L8554.52 1266.27Z" fill="#0EE5F2"/>
<path d="M3324.07 180H2727.86C2660.15 180 2603 237.088 2603 304.684V1699.32C2603 1766.91 2660.2 1824 2727.86 1824C2795.51 1824 2855.01 1768.06 2855.01 1699.32V1205.89H3258.5L3695.68 1762.96C3734.25 1813.39 3778.49 1823.95 3808.8 1823.95C3876.51 1823.95 3935.95 1766.71 3935.95 1701.52C3935.95 1661.39 3914.57 1632.57 3898.09 1614.21L3537.55 1159.06C3647.15 1130.24 3739.15 1080.6 3805.89 1013.96C3892.22 927.701 3936 816.726 3936 683.987V679.534C3936 549.197 3888.6 430.918 3802.52 346.562C3692.97 239.14 3523.06 180 3324.12 180H3324.07ZM3681.59 690.742C3681.59 864.408 3535 976.633 3308.1 976.633H2854.96V413.756H3310.34C3546.23 413.756 3681.54 513.073 3681.54 686.239V690.691L3681.59 690.742Z" fill="#362FA7"/>
<path d="M5157.66 575C5087.85 575 5035.21 627.627 5035.21 697.413V1281.96C5035.21 1473.91 4905.18 1607.98 4719.04 1607.98C4532.9 1607.98 4430.13 1494.02 4430.13 1295.37V697.413C4430.13 629.928 4374.18 575 4305.44 575C4236.71 575 4183 627.627 4183 697.413V1337.74C4183 1639.8 4373.77 1835 4669 1835C4819.12 1835 4939.83 1784.27 5035.16 1680.57V1699.18C5035.16 1767.82 5088.92 1821.59 5157.61 1821.59C5226.29 1821.59 5280 1767.82 5280 1699.18V697.413C5280 628.778 5226.24 575 5157.61 575H5157.66Z" fill="#362FA7"/>
<path d="M6158.65 809.421C6222.25 809.421 6274 759.605 6274 698.408C6274 637.211 6221.18 587.395 6158.65 587.395H5890.84V351.144C5890.84 284.906 5833.86 229 5766.45 229C5699.04 229 5644.29 282.66 5644.29 351.144V587.395H5585.06C5522.68 587.395 5472 637.211 5472 698.408C5472 759.605 5524.82 809.421 5585.06 809.421H5644.29V1468.66C5644.29 1697.67 5778.04 1829 6011.33 1829C6080.62 1829 6139.64 1818.32 6196.93 1795.36C6241.72 1778.29 6269.48 1740.15 6269.48 1695.73C6269.48 1635.73 6219.76 1586.91 6158.65 1586.91C6149.65 1586.91 6141.21 1589.1 6130.49 1591.85C6113.97 1596.09 6089.06 1602.53 6052.1 1602.53C5940.56 1602.53 5890.84 1554.36 5890.84 1446.45V809.471H6158.65V809.421Z" fill="#362FA7"/>
<path d="M6976.06 564C6810.16 564 6657.49 630.457 6546.11 751.111C6437.07 869.263 6377 1028.6 6377 1199.8V1204.25C6377 1383.41 6441.75 1546.4 6559.4 1663.25C6674.14 1777.25 6830.16 1840 6998.76 1840C7187.01 1840 7331.13 1783.45 7465.88 1656.59C7490.97 1634.72 7504.77 1605.65 7504.77 1574.72C7504.77 1514.57 7453.97 1465.63 7391.56 1465.63C7365.64 1465.63 7341.77 1474.89 7318.56 1493.95L7317.23 1495.1C7223.41 1580.08 7123.64 1619.66 7003.35 1619.66C6907.69 1619.66 6818.46 1586.88 6752.08 1527.38C6689.21 1471.03 6647.92 1392.96 6631.38 1299.93H7439.25C7504.21 1299.93 7557 1247.99 7557 1184.18C7557 1019.99 7503.5 867.362 7406.32 754.314C7299.31 629.857 7150.57 564.05 6976.11 564.05L6976.06 564ZM7305.57 1101.86H6631.38C6665.23 910.399 6800.79 779.936 6971.53 779.936C7181.62 779.936 7280.22 939.774 7305.57 1101.86Z" fill="#362FA7"/>
<path d="M8661.79 707.591C8568.66 616.298 8432.09 570 8255.95 570C8112.59 570 7989.55 594.926 7857.22 650.833C7823.42 664.347 7787.17 702.586 7787.17 754.94C7787.17 814.101 7839.19 864.052 7900.72 864.052C7914.7 864.052 7930.79 860.799 7946 854.843L7947.33 854.292C8041.88 812.8 8136.9 792.629 8237.68 792.629C8379.92 792.629 8549.21 840.227 8552.17 1065.91C8469.47 1045.44 8366.34 1027.57 8226.34 1027.57C8068.69 1027.57 7935.69 1062.81 7841.7 1129.42C7740.51 1201.2 7687 1307.16 7687 1435.74V1440.19C7687 1699.41 7926.24 1835 8162.58 1835C8344.74 1835 8469.62 1767.53 8552.22 1692.4V1705.82C8552.22 1771.84 8603.99 1821.59 8672.61 1821.59C8741.23 1821.59 8793 1769.88 8793 1701.31V1069.61C8793 914.704 8748.84 792.879 8661.74 707.491L8661.79 707.591ZM8554.52 1266.27V1351C8554.52 1508.97 8400.7 1628.09 8196.73 1628.09C8018.19 1628.09 7936.86 1527.28 7936.86 1433.59V1429.13C7936.86 1367.87 7961.83 1319.07 8011.04 1283.98C8064.5 1245.89 8145.27 1225.72 8244.52 1225.72C8348.82 1225.72 8450.47 1239.04 8554.47 1266.32L8554.52 1266.27Z" fill="#362FA7"/>
<path d="M3324.07 180H2727.86C2660.15 180 2603 237.088 2603 304.684V1699.32C2603 1766.91 2660.2 1824 2727.86 1824C2795.51 1824 2855.01 1768.06 2855.01 1699.32V1205.89H3258.5L3695.68 1762.96C3734.25 1813.39 3778.49 1823.95 3808.8 1823.95C3876.51 1823.95 3935.95 1766.71 3935.95 1701.52C3935.95 1661.39 3914.57 1632.57 3898.09 1614.21L3537.55 1159.06C3647.15 1130.24 3739.15 1080.6 3805.89 1013.96C3892.22 927.701 3936 816.726 3936 683.987V679.534C3936 549.197 3888.6 430.918 3802.52 346.562C3692.97 239.14 3523.06 180 3324.12 180H3324.07ZM3681.59 690.742C3681.59 864.408 3535 976.633 3308.1 976.633H2854.96V413.756H3310.34C3546.23 413.756 3681.54 513.073 3681.54 686.239V690.691L3681.59 690.742Z" fill="#0EE5F2"/>
<path d="M5157.66 575C5087.85 575 5035.21 627.627 5035.21 697.413V1281.96C5035.21 1473.91 4905.18 1607.98 4719.04 1607.98C4532.9 1607.98 4430.13 1494.02 4430.13 1295.37V697.413C4430.13 629.928 4374.18 575 4305.44 575C4236.71 575 4183 627.627 4183 697.413V1337.74C4183 1639.8 4373.77 1835 4669 1835C4819.12 1835 4939.83 1784.27 5035.16 1680.57V1699.18C5035.16 1767.82 5088.92 1821.59 5157.61 1821.59C5226.29 1821.59 5280 1767.82 5280 1699.18V697.413C5280 628.778 5226.24 575 5157.61 575H5157.66Z" fill="#0EE5F2"/>
<path d="M6158.65 809.421C6222.25 809.421 6274 759.605 6274 698.408C6274 637.211 6221.18 587.395 6158.65 587.395H5890.84V351.144C5890.84 284.906 5833.86 229 5766.45 229C5699.04 229 5644.29 282.66 5644.29 351.144V587.395H5585.06C5522.68 587.395 5472 637.211 5472 698.408C5472 759.605 5524.82 809.421 5585.06 809.421H5644.29V1468.66C5644.29 1697.67 5778.04 1829 6011.33 1829C6080.62 1829 6139.64 1818.32 6196.93 1795.36C6241.72 1778.29 6269.48 1740.15 6269.48 1695.73C6269.48 1635.73 6219.76 1586.91 6158.65 1586.91C6149.65 1586.91 6141.21 1589.1 6130.49 1591.85C6113.97 1596.09 6089.06 1602.53 6052.1 1602.53C5940.56 1602.53 5890.84 1554.36 5890.84 1446.45V809.471H6158.65V809.421Z" fill="#0EE5F2"/>
<path d="M6976.06 564C6810.16 564 6657.49 630.457 6546.11 751.111C6437.07 869.263 6377 1028.6 6377 1199.8V1204.25C6377 1383.41 6441.75 1546.4 6559.4 1663.25C6674.14 1777.25 6830.16 1840 6998.76 1840C7187.01 1840 7331.13 1783.45 7465.88 1656.59C7490.97 1634.72 7504.77 1605.65 7504.77 1574.72C7504.77 1514.57 7453.97 1465.63 7391.56 1465.63C7365.64 1465.63 7341.77 1474.89 7318.56 1493.95L7317.23 1495.1C7223.41 1580.08 7123.64 1619.66 7003.35 1619.66C6907.69 1619.66 6818.46 1586.88 6752.08 1527.38C6689.21 1471.03 6647.92 1392.96 6631.38 1299.93H7439.25C7504.21 1299.93 7557 1247.99 7557 1184.18C7557 1019.99 7503.5 867.362 7406.32 754.314C7299.31 629.857 7150.57 564.05 6976.11 564.05L6976.06 564ZM7305.57 1101.86H6631.38C6665.23 910.399 6800.79 779.936 6971.53 779.936C7181.62 779.936 7280.22 939.774 7305.57 1101.86Z" fill="#0EE5F2"/>
<path d="M8661.79 707.591C8568.66 616.298 8432.09 570 8255.95 570C8112.59 570 7989.55 594.926 7857.22 650.833C7823.42 664.347 7787.17 702.586 7787.17 754.94C7787.17 814.101 7839.19 864.052 7900.72 864.052C7914.7 864.052 7930.79 860.799 7946 854.843L7947.33 854.292C8041.88 812.8 8136.9 792.629 8237.68 792.629C8379.92 792.629 8549.21 840.227 8552.17 1065.91C8469.47 1045.44 8366.34 1027.57 8226.34 1027.57C8068.69 1027.57 7935.69 1062.81 7841.7 1129.42C7740.51 1201.2 7687 1307.16 7687 1435.74V1440.19C7687 1699.41 7926.24 1835 8162.58 1835C8344.74 1835 8469.62 1767.53 8552.22 1692.4V1705.82C8552.22 1771.84 8603.99 1821.59 8672.61 1821.59C8741.23 1821.59 8793 1769.88 8793 1701.31V1069.61C8793 914.704 8748.84 792.879 8661.74 707.491L8661.79 707.591ZM8554.52 1266.27V1351C8554.52 1508.97 8400.7 1628.09 8196.73 1628.09C8018.19 1628.09 7936.86 1527.28 7936.86 1433.59V1429.13C7936.86 1367.87 7961.83 1319.07 8011.04 1283.98C8064.5 1245.89 8145.27 1225.72 8244.52 1225.72C8348.82 1225.72 8450.47 1239.04 8554.47 1266.32L8554.52 1266.27Z" fill="#0EE5F2"/>
<path d="M3324.07 180H2727.86C2660.15 180 2603 237.088 2603 304.684V1699.32C2603 1766.91 2660.2 1824 2727.86 1824C2795.51 1824 2855.01 1768.06 2855.01 1699.32V1205.89H3258.5L3695.68 1762.96C3734.25 1813.39 3778.49 1823.95 3808.8 1823.95C3876.51 1823.95 3935.95 1766.71 3935.95 1701.52C3935.95 1661.39 3914.57 1632.57 3898.09 1614.21L3537.55 1159.06C3647.15 1130.24 3739.15 1080.6 3805.89 1013.96C3892.22 927.701 3936 816.726 3936 683.987V679.534C3936 549.197 3888.6 430.918 3802.52 346.562C3692.97 239.14 3523.06 180 3324.12 180H3324.07ZM3681.59 690.742C3681.59 864.408 3535 976.633 3308.1 976.633H2854.96V413.756H3310.34C3546.23 413.756 3681.54 513.073 3681.54 686.239V690.691L3681.59 690.742Z" fill="#362FA7"/>
<path d="M5157.66 575C5087.85 575 5035.21 627.627 5035.21 697.413V1281.96C5035.21 1473.91 4905.18 1607.98 4719.04 1607.98C4532.9 1607.98 4430.13 1494.02 4430.13 1295.37V697.413C4430.13 629.928 4374.18 575 4305.44 575C4236.71 575 4183 627.627 4183 697.413V1337.74C4183 1639.8 4373.77 1835 4669 1835C4819.12 1835 4939.83 1784.27 5035.16 1680.57V1699.18C5035.16 1767.82 5088.92 1821.59 5157.61 1821.59C5226.29 1821.59 5280 1767.82 5280 1699.18V697.413C5280 628.778 5226.24 575 5157.61 575H5157.66Z" fill="#362FA7"/>
<path d="M6158.65 809.421C6222.25 809.421 6274 759.605 6274 698.408C6274 637.211 6221.18 587.395 6158.65 587.395H5890.84V351.144C5890.84 284.906 5833.86 229 5766.45 229C5699.04 229 5644.29 282.66 5644.29 351.144V587.395H5585.06C5522.68 587.395 5472 637.211 5472 698.408C5472 759.605 5524.82 809.421 5585.06 809.421H5644.29V1468.66C5644.29 1697.67 5778.04 1829 6011.33 1829C6080.62 1829 6139.64 1818.32 6196.93 1795.36C6241.72 1778.29 6269.48 1740.15 6269.48 1695.73C6269.48 1635.73 6219.76 1586.91 6158.65 1586.91C6149.65 1586.91 6141.21 1589.1 6130.49 1591.85C6113.97 1596.09 6089.06 1602.53 6052.1 1602.53C5940.56 1602.53 5890.84 1554.36 5890.84 1446.45V809.471H6158.65V809.421Z" fill="#362FA7"/>
<path d="M6976.06 564C6810.16 564 6657.49 630.457 6546.11 751.111C6437.07 869.263 6377 1028.6 6377 1199.8V1204.25C6377 1383.41 6441.75 1546.4 6559.4 1663.25C6674.14 1777.25 6830.16 1840 6998.76 1840C7187.01 1840 7331.13 1783.45 7465.88 1656.59C7490.97 1634.72 7504.77 1605.65 7504.77 1574.72C7504.77 1514.57 7453.97 1465.63 7391.56 1465.63C7365.64 1465.63 7341.77 1474.89 7318.56 1493.95L7317.23 1495.1C7223.41 1580.08 7123.64 1619.66 7003.35 1619.66C6907.69 1619.66 6818.46 1586.88 6752.08 1527.38C6689.21 1471.03 6647.92 1392.96 6631.38 1299.93H7439.25C7504.21 1299.93 7557 1247.99 7557 1184.18C7557 1019.99 7503.5 867.362 7406.32 754.314C7299.31 629.857 7150.57 564.05 6976.11 564.05L6976.06 564ZM7305.57 1101.86H6631.38C6665.23 910.399 6800.79 779.936 6971.53 779.936C7181.62 779.936 7280.22 939.774 7305.57 1101.86Z" fill="#362FA7"/>
<path d="M8661.79 707.591C8568.66 616.298 8432.09 570 8255.95 570C8112.59 570 7989.55 594.926 7857.22 650.833C7823.42 664.347 7787.17 702.586 7787.17 754.94C7787.17 814.101 7839.19 864.052 7900.72 864.052C7914.7 864.052 7930.79 860.799 7946 854.843L7947.33 854.292C8041.88 812.8 8136.9 792.629 8237.68 792.629C8379.92 792.629 8549.21 840.227 8552.17 1065.91C8469.47 1045.44 8366.34 1027.57 8226.34 1027.57C8068.69 1027.57 7935.69 1062.81 7841.7 1129.42C7740.51 1201.2 7687 1307.16 7687 1435.74V1440.19C7687 1699.41 7926.24 1835 8162.58 1835C8344.74 1835 8469.62 1767.53 8552.22 1692.4V1705.82C8552.22 1771.84 8603.99 1821.59 8672.61 1821.59C8741.23 1821.59 8793 1769.88 8793 1701.31V1069.61C8793 914.704 8748.84 792.879 8661.74 707.491L8661.79 707.591ZM8554.52 1266.27V1351C8554.52 1508.97 8400.7 1628.09 8196.73 1628.09C8018.19 1628.09 7936.86 1527.28 7936.86 1433.59V1429.13C7936.86 1367.87 7961.83 1319.07 8011.04 1283.98C8064.5 1245.89 8145.27 1225.72 8244.52 1225.72C8348.82 1225.72 8450.47 1239.04 8554.47 1266.32L8554.52 1266.27Z" fill="#362FA7"/>
<path d="M3324.07 180H2727.86C2660.15 180 2603 237.088 2603 304.684V1699.32C2603 1766.91 2660.2 1824 2727.86 1824C2795.51 1824 2855.01 1768.06 2855.01 1699.32V1205.89H3258.5L3695.68 1762.96C3734.25 1813.39 3778.49 1823.95 3808.8 1823.95C3876.51 1823.95 3935.95 1766.71 3935.95 1701.52C3935.95 1661.39 3914.57 1632.57 3898.09 1614.21L3537.55 1159.06C3647.15 1130.24 3739.15 1080.6 3805.89 1013.96C3892.22 927.701 3936 816.726 3936 683.987V679.534C3936 549.197 3888.6 430.918 3802.52 346.562C3692.97 239.14 3523.06 180 3324.12 180H3324.07ZM3681.59 690.742C3681.59 864.408 3535 976.633 3308.1 976.633H2854.96V413.756H3310.34C3546.23 413.756 3681.54 513.073 3681.54 686.239V690.691L3681.59 690.742Z" fill="#0EE5F2"/>
<path d="M5157.66 575C5087.85 575 5035.21 627.627 5035.21 697.413V1281.96C5035.21 1473.91 4905.18 1607.98 4719.04 1607.98C4532.9 1607.98 4430.13 1494.02 4430.13 1295.37V697.413C4430.13 629.928 4374.18 575 4305.44 575C4236.71 575 4183 627.627 4183 697.413V1337.74C4183 1639.8 4373.77 1835 4669 1835C4819.12 1835 4939.83 1784.27 5035.16 1680.57V1699.18C5035.16 1767.82 5088.92 1821.59 5157.61 1821.59C5226.29 1821.59 5280 1767.82 5280 1699.18V697.413C5280 628.778 5226.24 575 5157.61 575H5157.66Z" fill="#0EE5F2"/>
<path d="M6158.65 809.421C6222.25 809.421 6274 759.605 6274 698.408C6274 637.211 6221.18 587.395 6158.65 587.395H5890.84V351.144C5890.84 284.906 5833.86 229 5766.45 229C5699.04 229 5644.29 282.66 5644.29 351.144V587.395H5585.06C5522.68 587.395 5472 637.211 5472 698.408C5472 759.605 5524.82 809.421 5585.06 809.421H5644.29V1468.66C5644.29 1697.67 5778.04 1829 6011.33 1829C6080.62 1829 6139.64 1818.32 6196.93 1795.36C6241.72 1778.29 6269.48 1740.15 6269.48 1695.73C6269.48 1635.73 6219.76 1586.91 6158.65 1586.91C6149.65 1586.91 6141.21 1589.1 6130.49 1591.85C6113.97 1596.09 6089.06 1602.53 6052.1 1602.53C5940.56 1602.53 5890.84 1554.36 5890.84 1446.45V809.471H6158.65V809.421Z" fill="#0EE5F2"/>
<path d="M6976.06 564C6810.16 564 6657.49 630.457 6546.11 751.111C6437.07 869.263 6377 1028.6 6377 1199.8V1204.25C6377 1383.41 6441.75 1546.4 6559.4 1663.25C6674.14 1777.25 6830.16 1840 6998.76 1840C7187.01 1840 7331.13 1783.45 7465.88 1656.59C7490.97 1634.72 7504.77 1605.65 7504.77 1574.72C7504.77 1514.57 7453.97 1465.63 7391.56 1465.63C7365.64 1465.63 7341.77 1474.89 7318.56 1493.95L7317.23 1495.1C7223.41 1580.08 7123.64 1619.66 7003.35 1619.66C6907.69 1619.66 6818.46 1586.88 6752.08 1527.38C6689.21 1471.03 6647.92 1392.96 6631.38 1299.93H7439.25C7504.21 1299.93 7557 1247.99 7557 1184.18C7557 1019.99 7503.5 867.362 7406.32 754.314C7299.31 629.857 7150.57 564.05 6976.11 564.05L6976.06 564ZM7305.57 1101.86H6631.38C6665.23 910.399 6800.79 779.936 6971.53 779.936C7181.62 779.936 7280.22 939.774 7305.57 1101.86Z" fill="#0EE5F2"/>
<path d="M8661.79 707.591C8568.66 616.298 8432.09 570 8255.95 570C8112.59 570 7989.55 594.926 7857.22 650.833C7823.42 664.347 7787.17 702.586 7787.17 754.94C7787.17 814.101 7839.19 864.052 7900.72 864.052C7914.7 864.052 7930.79 860.799 7946 854.843L7947.33 854.292C8041.88 812.8 8136.9 792.629 8237.68 792.629C8379.92 792.629 8549.21 840.227 8552.17 1065.91C8469.47 1045.44 8366.34 1027.57 8226.34 1027.57C8068.69 1027.57 7935.69 1062.81 7841.7 1129.42C7740.51 1201.2 7687 1307.16 7687 1435.74V1440.19C7687 1699.41 7926.24 1835 8162.58 1835C8344.74 1835 8469.62 1767.53 8552.22 1692.4V1705.82C8552.22 1771.84 8603.99 1821.59 8672.61 1821.59C8741.23 1821.59 8793 1769.88 8793 1701.31V1069.61C8793 914.704 8748.84 792.879 8661.74 707.491L8661.79 707.591ZM8554.52 1266.27V1351C8554.52 1508.97 8400.7 1628.09 8196.73 1628.09C8018.19 1628.09 7936.86 1527.28 7936.86 1433.59V1429.13C7936.86 1367.87 7961.83 1319.07 8011.04 1283.98C8064.5 1245.89 8145.27 1225.72 8244.52 1225.72C8348.82 1225.72 8450.47 1239.04 8554.47 1266.32L8554.52 1266.27Z" fill="#0EE5F2"/>
<path d="M3324.07 180H2727.86C2660.15 180 2603 237.088 2603 304.684V1699.32C2603 1766.91 2660.2 1824 2727.86 1824C2795.51 1824 2855.01 1768.06 2855.01 1699.32V1205.89H3258.5L3695.68 1762.96C3734.25 1813.39 3778.49 1823.95 3808.8 1823.95C3876.51 1823.95 3935.95 1766.71 3935.95 1701.52C3935.95 1661.39 3914.57 1632.57 3898.09 1614.21L3537.55 1159.06C3647.15 1130.24 3739.15 1080.6 3805.89 1013.96C3892.22 927.701 3936 816.726 3936 683.987V679.534C3936 549.197 3888.6 430.918 3802.52 346.562C3692.97 239.14 3523.06 180 3324.12 180H3324.07ZM3681.59 690.742C3681.59 864.408 3535 976.633 3308.1 976.633H2854.96V413.756H3310.34C3546.23 413.756 3681.54 513.073 3681.54 686.239V690.691L3681.59 690.742Z" fill="#362FA7"/>
<path d="M5157.66 575C5087.85 575 5035.21 627.627 5035.21 697.413V1281.96C5035.21 1473.91 4905.18 1607.98 4719.04 1607.98C4532.9 1607.98 4430.13 1494.02 4430.13 1295.37V697.413C4430.13 629.928 4374.18 575 4305.44 575C4236.71 575 4183 627.627 4183 697.413V1337.74C4183 1639.8 4373.77 1835 4669 1835C4819.12 1835 4939.83 1784.27 5035.16 1680.57V1699.18C5035.16 1767.82 5088.92 1821.59 5157.61 1821.59C5226.29 1821.59 5280 1767.82 5280 1699.18V697.413C5280 628.778 5226.24 575 5157.61 575H5157.66Z" fill="#362FA7"/>
<path d="M6158.65 809.421C6222.25 809.421 6274 759.605 6274 698.408C6274 637.211 6221.18 587.395 6158.65 587.395H5890.84V351.144C5890.84 284.906 5833.86 229 5766.45 229C5699.04 229 5644.29 282.66 5644.29 351.144V587.395H5585.06C5522.68 587.395 5472 637.211 5472 698.408C5472 759.605 5524.82 809.421 5585.06 809.421H5644.29V1468.66C5644.29 1697.67 5778.04 1829 6011.33 1829C6080.62 1829 6139.64 1818.32 6196.93 1795.36C6241.72 1778.29 6269.48 1740.15 6269.48 1695.73C6269.48 1635.73 6219.76 1586.91 6158.65 1586.91C6149.65 1586.91 6141.21 1589.1 6130.49 1591.85C6113.97 1596.09 6089.06 1602.53 6052.1 1602.53C5940.56 1602.53 5890.84 1554.36 5890.84 1446.45V809.471H6158.65V809.421Z" fill="#362FA7"/>
<path d="M6976.06 564C6810.16 564 6657.49 630.457 6546.11 751.111C6437.07 869.263 6377 1028.6 6377 1199.8V1204.25C6377 1383.41 6441.75 1546.4 6559.4 1663.25C6674.14 1777.25 6830.16 1840 6998.76 1840C7187.01 1840 7331.13 1783.45 7465.88 1656.59C7490.97 1634.72 7504.77 1605.65 7504.77 1574.72C7504.77 1514.57 7453.97 1465.63 7391.56 1465.63C7365.64 1465.63 7341.77 1474.89 7318.56 1493.95L7317.23 1495.1C7223.41 1580.08 7123.64 1619.66 7003.35 1619.66C6907.69 1619.66 6818.46 1586.88 6752.08 1527.38C6689.21 1471.03 6647.92 1392.96 6631.38 1299.93H7439.25C7504.21 1299.93 7557 1247.99 7557 1184.18C7557 1019.99 7503.5 867.362 7406.32 754.314C7299.31 629.857 7150.57 564.05 6976.11 564.05L6976.06 564ZM7305.57 1101.86H6631.38C6665.23 910.399 6800.79 779.936 6971.53 779.936C7181.62 779.936 7280.22 939.774 7305.57 1101.86Z" fill="#362FA7"/>
<path d="M8661.79 707.591C8568.66 616.298 8432.09 570 8255.95 570C8112.59 570 7989.55 594.926 7857.22 650.833C7823.42 664.347 7787.17 702.586 7787.17 754.94C7787.17 814.101 7839.19 864.052 7900.72 864.052C7914.7 864.052 7930.79 860.799 7946 854.843L7947.33 854.292C8041.88 812.8 8136.9 792.629 8237.68 792.629C8379.92 792.629 8549.21 840.227 8552.17 1065.91C8469.47 1045.44 8366.34 1027.57 8226.34 1027.57C8068.69 1027.57 7935.69 1062.81 7841.7 1129.42C7740.51 1201.2 7687 1307.16 7687 1435.74V1440.19C7687 1699.41 7926.24 1835 8162.58 1835C8344.74 1835 8469.62 1767.53 8552.22 1692.4V1705.82C8552.22 1771.84 8603.99 1821.59 8672.61 1821.59C8741.23 1821.59 8793 1769.88 8793 1701.31V1069.61C8793 914.704 8748.84 792.879 8661.74 707.491L8661.79 707.591ZM8554.52 1266.27V1351C8554.52 1508.97 8400.7 1628.09 8196.73 1628.09C8018.19 1628.09 7936.86 1527.28 7936.86 1433.59V1429.13C7936.86 1367.87 7961.83 1319.07 8011.04 1283.98C8064.5 1245.89 8145.27 1225.72 8244.52 1225.72C8348.82 1225.72 8450.47 1239.04 8554.47 1266.32L8554.52 1266.27Z" fill="#362FA7"/>
<path d="M3324.07 180H2727.86C2660.15 180 2603 237.088 2603 304.684V1699.32C2603 1766.91 2660.2 1824 2727.86 1824C2795.51 1824 2855.01 1768.06 2855.01 1699.32V1205.89H3258.5L3695.68 1762.96C3734.25 1813.39 3778.49 1823.95 3808.8 1823.95C3876.51 1823.95 3935.95 1766.71 3935.95 1701.52C3935.95 1661.39 3914.57 1632.57 3898.09 1614.21L3537.55 1159.06C3647.15 1130.24 3739.15 1080.6 3805.89 1013.96C3892.22 927.701 3936 816.726 3936 683.987V679.534C3936 549.197 3888.6 430.918 3802.52 346.562C3692.97 239.14 3523.06 180 3324.12 180H3324.07ZM3681.59 690.742C3681.59 864.408 3535 976.633 3308.1 976.633H2854.96V413.756H3310.34C3546.23 413.756 3681.54 513.073 3681.54 686.239V690.691L3681.59 690.742Z" fill="#0EE5F2"/>
<path d="M5157.66 575C5087.85 575 5035.21 627.627 5035.21 697.413V1281.96C5035.21 1473.91 4905.18 1607.98 4719.04 1607.98C4532.9 1607.98 4430.13 1494.02 4430.13 1295.37V697.413C4430.13 629.928 4374.18 575 4305.44 575C4236.71 575 4183 627.627 4183 697.413V1337.74C4183 1639.8 4373.77 1835 4669 1835C4819.12 1835 4939.83 1784.27 5035.16 1680.57V1699.18C5035.16 1767.82 5088.92 1821.59 5157.61 1821.59C5226.29 1821.59 5280 1767.82 5280 1699.18V697.413C5280 628.778 5226.24 575 5157.61 575H5157.66Z" fill="#0EE5F2"/>
<path d="M6158.65 809.421C6222.25 809.421 6274 759.605 6274 698.408C6274 637.211 6221.18 587.395 6158.65 587.395H5890.84V351.144C5890.84 284.906 5833.86 229 5766.45 229C5699.04 229 5644.29 282.66 5644.29 351.144V587.395H5585.06C5522.68 587.395 5472 637.211 5472 698.408C5472 759.605 5524.82 809.421 5585.06 809.421H5644.29V1468.66C5644.29 1697.67 5778.04 1829 6011.33 1829C6080.62 1829 6139.64 1818.32 6196.93 1795.36C6241.72 1778.29 6269.48 1740.15 6269.48 1695.73C6269.48 1635.73 6219.76 1586.91 6158.65 1586.91C6149.65 1586.91 6141.21 1589.1 6130.49 1591.85C6113.97 1596.09 6089.06 1602.53 6052.1 1602.53C5940.56 1602.53 5890.84 1554.36 5890.84 1446.45V809.471H6158.65V809.421Z" fill="#0EE5F2"/>
<path d="M6976.06 564C6810.16 564 6657.49 630.457 6546.11 751.111C6437.07 869.263 6377 1028.6 6377 1199.8V1204.25C6377 1383.41 6441.75 1546.4 6559.4 1663.25C6674.14 1777.25 6830.16 1840 6998.76 1840C7187.01 1840 7331.13 1783.45 7465.88 1656.59C7490.97 1634.72 7504.77 1605.65 7504.77 1574.72C7504.77 1514.57 7453.97 1465.63 7391.56 1465.63C7365.64 1465.63 7341.77 1474.89 7318.56 1493.95L7317.23 1495.1C7223.41 1580.08 7123.64 1619.66 7003.35 1619.66C6907.69 1619.66 6818.46 1586.88 6752.08 1527.38C6689.21 1471.03 6647.92 1392.96 6631.38 1299.93H7439.25C7504.21 1299.93 7557 1247.99 7557 1184.18C7557 1019.99 7503.5 867.362 7406.32 754.314C7299.31 629.857 7150.57 564.05 6976.11 564.05L6976.06 564ZM7305.57 1101.86H6631.38C6665.23 910.399 6800.79 779.936 6971.53 779.936C7181.62 779.936 7280.22 939.774 7305.57 1101.86Z" fill="#0EE5F2"/>
<path d="M8661.79 707.591C8568.66 616.298 8432.09 570 8255.95 570C8112.59 570 7989.55 594.926 7857.22 650.833C7823.42 664.347 7787.17 702.586 7787.17 754.94C7787.17 814.101 7839.19 864.052 7900.72 864.052C7914.7 864.052 7930.79 860.799 7946 854.843L7947.33 854.292C8041.88 812.8 8136.9 792.629 8237.68 792.629C8379.92 792.629 8549.21 840.227 8552.17 1065.91C8469.47 1045.44 8366.34 1027.57 8226.34 1027.57C8068.69 1027.57 7935.69 1062.81 7841.7 1129.42C7740.51 1201.2 7687 1307.16 7687 1435.74V1440.19C7687 1699.41 7926.24 1835 8162.58 1835C8344.74 1835 8469.62 1767.53 8552.22 1692.4V1705.82C8552.22 1771.84 8603.99 1821.59 8672.61 1821.59C8741.23 1821.59 8793 1769.88 8793 1701.31V1069.61C8793 914.704 8748.84 792.879 8661.74 707.491L8661.79 707.591ZM8554.52 1266.27V1351C8554.52 1508.97 8400.7 1628.09 8196.73 1628.09C8018.19 1628.09 7936.86 1527.28 7936.86 1433.59V1429.13C7936.86 1367.87 7961.83 1319.07 8011.04 1283.98C8064.5 1245.89 8145.27 1225.72 8244.52 1225.72C8348.82 1225.72 8450.47 1239.04 8554.47 1266.32L8554.52 1266.27Z" fill="#0EE5F2"/>
<path d="M3324.07 180H2727.86C2660.15 180 2603 237.088 2603 304.684V1699.32C2603 1766.91 2660.2 1824 2727.86 1824C2795.51 1824 2855.01 1768.06 2855.01 1699.32V1205.89H3258.5L3695.68 1762.96C3734.25 1813.39 3778.49 1823.95 3808.8 1823.95C3876.51 1823.95 3935.95 1766.71 3935.95 1701.52C3935.95 1661.39 3914.57 1632.57 3898.09 1614.21L3537.55 1159.06C3647.15 1130.24 3739.15 1080.6 3805.89 1013.96C3892.22 927.701 3936 816.726 3936 683.987V679.534C3936 549.197 3888.6 430.918 3802.52 346.562C3692.97 239.14 3523.06 180 3324.12 180H3324.07ZM3681.59 690.742C3681.59 864.408 3535 976.633 3308.1 976.633H2854.96V413.756H3310.34C3546.23 413.756 3681.54 513.073 3681.54 686.239V690.691L3681.59 690.742Z" fill="#362FA7"/>
<path d="M5157.66 575C5087.85 575 5035.21 627.627 5035.21 697.413V1281.96C5035.21 1473.91 4905.18 1607.98 4719.04 1607.98C4532.9 1607.98 4430.13 1494.02 4430.13 1295.37V697.413C4430.13 629.928 4374.18 575 4305.44 575C4236.71 575 4183 627.627 4183 697.413V1337.74C4183 1639.8 4373.77 1835 4669 1835C4819.12 1835 4939.83 1784.27 5035.16 1680.57V1699.18C5035.16 1767.82 5088.92 1821.59 5157.61 1821.59C5226.29 1821.59 5280 1767.82 5280 1699.18V697.413C5280 628.778 5226.24 575 5157.61 575H5157.66Z" fill="#362FA7"/>
<path d="M6158.65 809.421C6222.25 809.421 6274 759.605 6274 698.408C6274 637.211 6221.18 587.395 6158.65 587.395H5890.84V351.144C5890.84 284.906 5833.86 229 5766.45 229C5699.04 229 5644.29 282.66 5644.29 351.144V587.395H5585.06C5522.68 587.395 5472 637.211 5472 698.408C5472 759.605 5524.82 809.421 5585.06 809.421H5644.29V1468.66C5644.29 1697.67 5778.04 1829 6011.33 1829C6080.62 1829 6139.64 1818.32 6196.93 1795.36C6241.72 1778.29 6269.48 1740.15 6269.48 1695.73C6269.48 1635.73 6219.76 1586.91 6158.65 1586.91C6149.65 1586.91 6141.21 1589.1 6130.49 1591.85C6113.97 1596.09 6089.06 1602.53 6052.1 1602.53C5940.56 1602.53 5890.84 1554.36 5890.84 1446.45V809.471H6158.65V809.421Z" fill="#362FA7"/>
<path d="M6976.06 564C6810.16 564 6657.49 630.457 6546.11 751.111C6437.07 869.263 6377 1028.6 6377 1199.8V1204.25C6377 1383.41 6441.75 1546.4 6559.4 1663.25C6674.14 1777.25 6830.16 1840 6998.76 1840C7187.01 1840 7331.13 1783.45 7465.88 1656.59C7490.97 1634.72 7504.77 1605.65 7504.77 1574.72C7504.77 1514.57 7453.97 1465.63 7391.56 1465.63C7365.64 1465.63 7341.77 1474.89 7318.56 1493.95L7317.23 1495.1C7223.41 1580.08 7123.64 1619.66 7003.35 1619.66C6907.69 1619.66 6818.46 1586.88 6752.08 1527.38C6689.21 1471.03 6647.92 1392.96 6631.38 1299.93H7439.25C7504.21 1299.93 7557 1247.99 7557 1184.18C7557 1019.99 7503.5 867.362 7406.32 754.314C7299.31 629.857 7150.57 564.05 6976.11 564.05L6976.06 564ZM7305.57 1101.86H6631.38C6665.23 910.399 6800.79 779.936 6971.53 779.936C7181.62 779.936 7280.22 939.774 7305.57 1101.86Z" fill="#362FA7"/>
<path d="M8661.79 707.591C8568.66 616.298 8432.09 570 8255.95 570C8112.59 570 7989.55 594.926 7857.22 650.833C7823.42 664.347 7787.17 702.586 7787.17 754.94C7787.17 814.101 7839.19 864.052 7900.72 864.052C7914.7 864.052 7930.79 860.799 7946 854.843L7947.33 854.292C8041.88 812.8 8136.9 792.629 8237.68 792.629C8379.92 792.629 8549.21 840.227 8552.17 1065.91C8469.47 1045.44 8366.34 1027.57 8226.34 1027.57C8068.69 1027.57 7935.69 1062.81 7841.7 1129.42C7740.51 1201.2 7687 1307.16 7687 1435.74V1440.19C7687 1699.41 7926.24 1835 8162.58 1835C8344.74 1835 8469.62 1767.53 8552.22 1692.4V1705.82C8552.22 1771.84 8603.99 1821.59 8672.61 1821.59C8741.23 1821.59 8793 1769.88 8793 1701.31V1069.61C8793 914.704 8748.84 792.879 8661.74 707.491L8661.79 707.591ZM8554.52 1266.27V1351C8554.52 1508.97 8400.7 1628.09 8196.73 1628.09C8018.19 1628.09 7936.86 1527.28 7936.86 1433.59V1429.13C7936.86 1367.87 7961.83 1319.07 8011.04 1283.98C8064.5 1245.89 8145.27 1225.72 8244.52 1225.72C8348.82 1225.72 8450.47 1239.04 8554.47 1266.32L8554.52 1266.27Z" fill="#362FA7"/>
<path d="M3324.07 180H2727.86C2660.15 180 2603 237.088 2603 304.684V1699.32C2603 1766.91 2660.2 1824 2727.86 1824C2795.51 1824 2855.01 1768.06 2855.01 1699.32V1205.89H3258.5L3695.68 1762.96C3734.25 1813.39 3778.49 1823.95 3808.8 1823.95C3876.51 1823.95 3935.95 1766.71 3935.95 1701.52C3935.95 1661.39 3914.57 1632.57 3898.09 1614.21L3537.55 1159.06C3647.15 1130.24 3739.15 1080.6 3805.89 1013.96C3892.22 927.701 3936 816.726 3936 683.987V679.534C3936 549.197 3888.6 430.918 3802.52 346.562C3692.97 239.14 3523.06 180 3324.12 180H3324.07ZM3681.59 690.742C3681.59 864.408 3535 976.633 3308.1 976.633H2854.96V413.756H3310.34C3546.23 413.756 3681.54 513.073 3681.54 686.239V690.691L3681.59 690.742Z" fill="#0EE5F2"/>
<path d="M5157.66 575C5087.85 575 5035.21 627.627 5035.21 697.413V1281.96C5035.21 1473.91 4905.18 1607.98 4719.04 1607.98C4532.9 1607.98 4430.13 1494.02 4430.13 1295.37V697.413C4430.13 629.928 4374.18 575 4305.44 575C4236.71 575 4183 627.627 4183 697.413V1337.74C4183 1639.8 4373.77 1835 4669 1835C4819.12 1835 4939.83 1784.27 5035.16 1680.57V1699.18C5035.16 1767.82 5088.92 1821.59 5157.61 1821.59C5226.29 1821.59 5280 1767.82 5280 1699.18V697.413C5280 628.778 5226.24 575 5157.61 575H5157.66Z" fill="#0EE5F2"/>
<path d="M6158.65 809.421C6222.25 809.421 6274 759.605 6274 698.408C6274 637.211 6221.18 587.395 6158.65 587.395H5890.84V351.144C5890.84 284.906 5833.86 229 5766.45 229C5699.04 229 5644.29 282.66 5644.29 351.144V587.395H5585.06C5522.68 587.395 5472 637.211 5472 698.408C5472 759.605 5524.82 809.421 5585.06 809.421H5644.29V1468.66C5644.29 1697.67 5778.04 1829 6011.33 1829C6080.62 1829 6139.64 1818.32 6196.93 1795.36C6241.72 1778.29 6269.48 1740.15 6269.48 1695.73C6269.48 1635.73 6219.76 1586.91 6158.65 1586.91C6149.65 1586.91 6141.21 1589.1 6130.49 1591.85C6113.97 1596.09 6089.06 1602.53 6052.1 1602.53C5940.56 1602.53 5890.84 1554.36 5890.84 1446.45V809.471H6158.65V809.421Z" fill="#0EE5F2"/>
<path d="M6976.06 564C6810.16 564 6657.49 630.457 6546.11 751.111C6437.07 869.263 6377 1028.6 6377 1199.8V1204.25C6377 1383.41 6441.75 1546.4 6559.4 1663.25C6674.14 1777.25 6830.16 1840 6998.76 1840C7187.01 1840 7331.13 1783.45 7465.88 1656.59C7490.97 1634.72 7504.77 1605.65 7504.77 1574.72C7504.77 1514.57 7453.97 1465.63 7391.56 1465.63C7365.64 1465.63 7341.77 1474.89 7318.56 1493.95L7317.23 1495.1C7223.41 1580.08 7123.64 1619.66 7003.35 1619.66C6907.69 1619.66 6818.46 1586.88 6752.08 1527.38C6689.21 1471.03 6647.92 1392.96 6631.38 1299.93H7439.25C7504.21 1299.93 7557 1247.99 7557 1184.18C7557 1019.99 7503.5 867.362 7406.32 754.314C7299.31 629.857 7150.57 564.05 6976.11 564.05L6976.06 564ZM7305.57 1101.86H6631.38C6665.23 910.399 6800.79 779.936 6971.53 779.936C7181.62 779.936 7280.22 939.774 7305.57 1101.86Z" fill="#0EE5F2"/>
<path d="M8661.79 707.591C8568.66 616.298 8432.09 570 8255.95 570C8112.59 570 7989.55 594.926 7857.22 650.833C7823.42 664.347 7787.17 702.586 7787.17 754.94C7787.17 814.101 7839.19 864.052 7900.72 864.052C7914.7 864.052 7930.79 860.799 7946 854.843L7947.33 854.292C8041.88 812.8 8136.9 792.629 8237.68 792.629C8379.92 792.629 8549.21 840.227 8552.17 1065.91C8469.47 1045.44 8366.34 1027.57 8226.34 1027.57C8068.69 1027.57 7935.69 1062.81 7841.7 1129.42C7740.51 1201.2 7687 1307.16 7687 1435.74V1440.19C7687 1699.41 7926.24 1835 8162.58 1835C8344.74 1835 8469.62 1767.53 8552.22 1692.4V1705.82C8552.22 1771.84 8603.99 1821.59 8672.61 1821.59C8741.23 1821.59 8793 1769.88 8793 1701.31V1069.61C8793 914.704 8748.84 792.879 8661.74 707.491L8661.79 707.591ZM8554.52 1266.27V1351C8554.52 1508.97 8400.7 1628.09 8196.73 1628.09C8018.19 1628.09 7936.86 1527.28 7936.86 1433.59V1429.13C7936.86 1367.87 7961.83 1319.07 8011.04 1283.98C8064.5 1245.89 8145.27 1225.72 8244.52 1225.72C8348.82 1225.72 8450.47 1239.04 8554.47 1266.32L8554.52 1266.27Z" fill="#0EE5F2"/>
<path d="M3324.07 180H2727.86C2660.15 180 2603 237.088 2603 304.684V1699.32C2603 1766.91 2660.2 1824 2727.86 1824C2795.51 1824 2855.01 1768.06 2855.01 1699.32V1205.89H3258.5L3695.68 1762.96C3734.25 1813.39 3778.49 1823.95 3808.8 1823.95C3876.51 1823.95 3935.95 1766.71 3935.95 1701.52C3935.95 1661.39 3914.57 1632.57 3898.09 1614.21L3537.55 1159.06C3647.15 1130.24 3739.15 1080.6 3805.89 1013.96C3892.22 927.701 3936 816.726 3936 683.987V679.534C3936 549.197 3888.6 430.918 3802.52 346.562C3692.97 239.14 3523.06 180 3324.12 180H3324.07ZM3681.59 690.742C3681.59 864.408 3535 976.633 3308.1 976.633H2854.96V413.756H3310.34C3546.23 413.756 3681.54 513.073 3681.54 686.239V690.691L3681.59 690.742Z" fill="#362FA7"/>
<path d="M5157.66 575C5087.85 575 5035.21 627.627 5035.21 697.413V1281.96C5035.21 1473.91 4905.18 1607.98 4719.04 1607.98C4532.9 1607.98 4430.13 1494.02 4430.13 1295.37V697.413C4430.13 629.928 4374.18 575 4305.44 575C4236.71 575 4183 627.627 4183 697.413V1337.74C4183 1639.8 4373.77 1835 4669 1835C4819.12 1835 4939.83 1784.27 5035.16 1680.57V1699.18C5035.16 1767.82 5088.92 1821.59 5157.61 1821.59C5226.29 1821.59 5280 1767.82 5280 1699.18V697.413C5280 628.778 5226.24 575 5157.61 575H5157.66Z" fill="#362FA7"/>
<path d="M6158.65 809.421C6222.25 809.421 6274 759.605 6274 698.408C6274 637.211 6221.18 587.395 6158.65 587.395H5890.84V351.144C5890.84 284.906 5833.86 229 5766.45 229C5699.04 229 5644.29 282.66 5644.29 351.144V587.395H5585.06C5522.68 587.395 5472 637.211 5472 698.408C5472 759.605 5524.82 809.421 5585.06 809.421H5644.29V1468.66C5644.29 1697.67 5778.04 1829 6011.33 1829C6080.62 1829 6139.64 1818.32 6196.93 1795.36C6241.72 1778.29 6269.48 1740.15 6269.48 1695.73C6269.48 1635.73 6219.76 1586.91 6158.65 1586.91C6149.65 1586.91 6141.21 1589.1 6130.49 1591.85C6113.97 1596.09 6089.06 1602.53 6052.1 1602.53C5940.56 1602.53 5890.84 1554.36 5890.84 1446.45V809.471H6158.65V809.421Z" fill="#362FA7"/>
<path d="M6976.06 564C6810.16 564 6657.49 630.457 6546.11 751.111C6437.07 869.263 6377 1028.6 6377 1199.8V1204.25C6377 1383.41 6441.75 1546.4 6559.4 1663.25C6674.14 1777.25 6830.16 1840 6998.76 1840C7187.01 1840 7331.13 1783.45 7465.88 1656.59C7490.97 1634.72 7504.77 1605.65 7504.77 1574.72C7504.77 1514.57 7453.97 1465.63 7391.56 1465.63C7365.64 1465.63 7341.77 1474.89 7318.56 1493.95L7317.23 1495.1C7223.41 1580.08 7123.64 1619.66 7003.35 1619.66C6907.69 1619.66 6818.46 1586.88 6752.08 1527.38C6689.21 1471.03 6647.92 1392.96 6631.38 1299.93H7439.25C7504.21 1299.93 7557 1247.99 7557 1184.18C7557 1019.99 7503.5 867.362 7406.32 754.314C7299.31 629.857 7150.57 564.05 6976.11 564.05L6976.06 564ZM7305.57 1101.86H6631.38C6665.23 910.399 6800.79 779.936 6971.53 779.936C7181.62 779.936 7280.22 939.774 7305.57 1101.86Z" fill="#362FA7"/>
<path d="M8661.79 707.591C8568.66 616.298 8432.09 570 8255.95 570C8112.59 570 7989.55 594.926 7857.22 650.833C7823.42 664.347 7787.17 702.586 7787.17 754.94C7787.17 814.101 7839.19 864.052 7900.72 864.052C7914.7 864.052 7930.79 860.799 7946 854.843L7947.33 854.292C8041.88 812.8 8136.9 792.629 8237.68 792.629C8379.92 792.629 8549.21 840.227 8552.17 1065.91C8469.47 1045.44 8366.34 1027.57 8226.34 1027.57C8068.69 1027.57 7935.69 1062.81 7841.7 1129.42C7740.51 1201.2 7687 1307.16 7687 1435.74V1440.19C7687 1699.41 7926.24 1835 8162.58 1835C8344.74 1835 8469.62 1767.53 8552.22 1692.4V1705.82C8552.22 1771.84 8603.99 1821.59 8672.61 1821.59C8741.23 1821.59 8793 1769.88 8793 1701.31V1069.61C8793 914.704 8748.84 792.879 8661.74 707.491L8661.79 707.591ZM8554.52 1266.27V1351C8554.52 1508.97 8400.7 1628.09 8196.73 1628.09C8018.19 1628.09 7936.86 1527.28 7936.86 1433.59V1429.13C7936.86 1367.87 7961.83 1319.07 8011.04 1283.98C8064.5 1245.89 8145.27 1225.72 8244.52 1225.72C8348.82 1225.72 8450.47 1239.04 8554.47 1266.32L8554.52 1266.27Z" fill="#362FA7"/>
<path d="M3324.07 180H2727.86C2660.15 180 2603 237.088 2603 304.684V1699.32C2603 1766.91 2660.2 1824 2727.86 1824C2795.51 1824 2855.01 1768.06 2855.01 1699.32V1205.89H3258.5L3695.68 1762.96C3734.25 1813.39 3778.49 1823.95 3808.8 1823.95C3876.51 1823.95 3935.95 1766.71 3935.95 1701.52C3935.95 1661.39 3914.57 1632.57 3898.09 1614.21L3537.55 1159.06C3647.15 1130.24 3739.15 1080.6 3805.89 1013.96C3892.22 927.701 3936 816.726 3936 683.987V679.534C3936 549.197 3888.6 430.918 3802.52 346.562C3692.97 239.14 3523.06 180 3324.12 180H3324.07ZM3681.59 690.742C3681.59 864.408 3535 976.633 3308.1 976.633H2854.96V413.756H3310.34C3546.23 413.756 3681.54 513.073 3681.54 686.239V690.691L3681.59 690.742Z" fill="#0EE5F2"/>
<path d="M5157.66 575C5087.85 575 5035.21 627.627 5035.21 697.413V1281.96C5035.21 1473.91 4905.18 1607.98 4719.04 1607.98C4532.9 1607.98 4430.13 1494.02 4430.13 1295.37V697.413C4430.13 629.928 4374.18 575 4305.44 575C4236.71 575 4183 627.627 4183 697.413V1337.74C4183 1639.8 4373.77 1835 4669 1835C4819.12 1835 4939.83 1784.27 5035.16 1680.57V1699.18C5035.16 1767.82 5088.92 1821.59 5157.61 1821.59C5226.29 1821.59 5280 1767.82 5280 1699.18V697.413C5280 628.778 5226.24 575 5157.61 575H5157.66Z" fill="#0EE5F2"/>
<path d="M6158.65 809.421C6222.25 809.421 6274 759.605 6274 698.408C6274 637.211 6221.18 587.395 6158.65 587.395H5890.84V351.144C5890.84 284.906 5833.86 229 5766.45 229C5699.04 229 5644.29 282.66 5644.29 351.144V587.395H5585.06C5522.68 587.395 5472 637.211 5472 698.408C5472 759.605 5524.82 809.421 5585.06 809.421H5644.29V1468.66C5644.29 1697.67 5778.04 1829 6011.33 1829C6080.62 1829 6139.64 1818.32 6196.93 1795.36C6241.72 1778.29 6269.48 1740.15 6269.48 1695.73C6269.48 1635.73 6219.76 1586.91 6158.65 1586.91C6149.65 1586.91 6141.21 1589.1 6130.49 1591.85C6113.97 1596.09 6089.06 1602.53 6052.1 1602.53C5940.56 1602.53 5890.84 1554.36 5890.84 1446.45V809.471H6158.65V809.421Z" fill="#0EE5F2"/>
<path d="M6976.06 564C6810.16 564 6657.49 630.457 6546.11 751.111C6437.07 869.263 6377 1028.6 6377 1199.8V1204.25C6377 1383.41 6441.75 1546.4 6559.4 1663.25C6674.14 1777.25 6830.16 1840 6998.76 1840C7187.01 1840 7331.13 1783.45 7465.88 1656.59C7490.97 1634.72 7504.77 1605.65 7504.77 1574.72C7504.77 1514.57 7453.97 1465.63 7391.56 1465.63C7365.64 1465.63 7341.77 1474.89 7318.56 1493.95L7317.23 1495.1C7223.41 1580.08 7123.64 1619.66 7003.35 1619.66C6907.69 1619.66 6818.46 1586.88 6752.08 1527.38C6689.21 1471.03 6647.92 1392.96 6631.38 1299.93H7439.25C7504.21 1299.93 7557 1247.99 7557 1184.18C7557 1019.99 7503.5 867.362 7406.32 754.314C7299.31 629.857 7150.57 564.05 6976.11 564.05L6976.06 564ZM7305.57 1101.86H6631.38C6665.23 910.399 6800.79 779.936 6971.53 779.936C7181.62 779.936 7280.22 939.774 7305.57 1101.86Z" fill="#0EE5F2"/>
<path d="M8661.79 707.591C8568.66 616.298 8432.09 570 8255.95 570C8112.59 570 7989.55 594.926 7857.22 650.833C7823.42 664.347 7787.17 702.586 7787.17 754.94C7787.17 814.101 7839.19 864.052 7900.72 864.052C7914.7 864.052 7930.79 860.799 7946 854.843L7947.33 854.292C8041.88 812.8 8136.9 792.629 8237.68 792.629C8379.92 792.629 8549.21 840.227 8552.17 1065.91C8469.47 1045.44 8366.34 1027.57 8226.34 1027.57C8068.69 1027.57 7935.69 1062.81 7841.7 1129.42C7740.51 1201.2 7687 1307.16 7687 1435.74V1440.19C7687 1699.41 7926.24 1835 8162.58 1835C8344.74 1835 8469.62 1767.53 8552.22 1692.4V1705.82C8552.22 1771.84 8603.99 1821.59 8672.61 1821.59C8741.23 1821.59 8793 1769.88 8793 1701.31V1069.61C8793 914.704 8748.84 792.879 8661.74 707.491L8661.79 707.591ZM8554.52 1266.27V1351C8554.52 1508.97 8400.7 1628.09 8196.73 1628.09C8018.19 1628.09 7936.86 1527.28 7936.86 1433.59V1429.13C7936.86 1367.87 7961.83 1319.07 8011.04 1283.98C8064.5 1245.89 8145.27 1225.72 8244.52 1225.72C8348.82 1225.72 8450.47 1239.04 8554.47 1266.32L8554.52 1266.27Z" fill="#0EE5F2"/>
<path d="M3324.07 180H2727.86C2660.15 180 2603 237.088 2603 304.684V1699.32C2603 1766.91 2660.2 1824 2727.86 1824C2795.51 1824 2855.01 1768.06 2855.01 1699.32V1205.89H3258.5L3695.68 1762.96C3734.25 1813.39 3778.49 1823.95 3808.8 1823.95C3876.51 1823.95 3935.95 1766.71 3935.95 1701.52C3935.95 1661.39 3914.57 1632.57 3898.09 1614.21L3537.55 1159.06C3647.15 1130.24 3739.15 1080.6 3805.89 1013.96C3892.22 927.701 3936 816.726 3936 683.987V679.534C3936 549.197 3888.6 430.918 3802.52 346.562C3692.97 239.14 3523.06 180 3324.12 180H3324.07ZM3681.59 690.742C3681.59 864.408 3535 976.633 3308.1 976.633H2854.96V413.756H3310.34C3546.23 413.756 3681.54 513.073 3681.54 686.239V690.691L3681.59 690.742Z" fill="#362FA7"/>
<path d="M5157.66 575C5087.85 575 5035.21 627.627 5035.21 697.413V1281.96C5035.21 1473.91 4905.18 1607.98 4719.04 1607.98C4532.9 1607.98 4430.13 1494.02 4430.13 1295.37V697.413C4430.13 629.928 4374.18 575 4305.44 575C4236.71 575 4183 627.627 4183 697.413V1337.74C4183 1639.8 4373.77 1835 4669 1835C4819.12 1835 4939.83 1784.27 5035.16 1680.57V1699.18C5035.16 1767.82 5088.92 1821.59 5157.61 1821.59C5226.29 1821.59 5280 1767.82 5280 1699.18V697.413C5280 628.778 5226.24 575 5157.61 575H5157.66Z" fill="#362FA7"/>
<path d="M6158.65 809.421C6222.25 809.421 6274 759.605 6274 698.408C6274 637.211 6221.18 587.395 6158.65 587.395H5890.84V351.144C5890.84 284.906 5833.86 229 5766.45 229C5699.04 229 5644.29 282.66 5644.29 351.144V587.395H5585.06C5522.68 587.395 5472 637.211 5472 698.408C5472 759.605 5524.82 809.421 5585.06 809.421H5644.29V1468.66C5644.29 1697.67 5778.04 1829 6011.33 1829C6080.62 1829 6139.64 1818.32 6196.93 1795.36C6241.72 1778.29 6269.48 1740.15 6269.48 1695.73C6269.48 1635.73 6219.76 1586.91 6158.65 1586.91C6149.65 1586.91 6141.21 1589.1 6130.49 1591.85C6113.97 1596.09 6089.06 1602.53 6052.1 1602.53C5940.56 1602.53 5890.84 1554.36 5890.84 1446.45V809.471H6158.65V809.421Z" fill="#362FA7"/>
<path d="M6976.06 564C6810.16 564 6657.49 630.457 6546.11 751.111C6437.07 869.263 6377 1028.6 6377 1199.8V1204.25C6377 1383.41 6441.75 1546.4 6559.4 1663.25C6674.14 1777.25 6830.16 1840 6998.76 1840C7187.01 1840 7331.13 1783.45 7465.88 1656.59C7490.97 1634.72 7504.77 1605.65 7504.77 1574.72C7504.77 1514.57 7453.97 1465.63 7391.56 1465.63C7365.64 1465.63 7341.77 1474.89 7318.56 1493.95L7317.23 1495.1C7223.41 1580.08 7123.64 1619.66 7003.35 1619.66C6907.69 1619.66 6818.46 1586.88 6752.08 1527.38C6689.21 1471.03 6647.92 1392.96 6631.38 1299.93H7439.25C7504.21 1299.93 7557 1247.99 7557 1184.18C7557 1019.99 7503.5 867.362 7406.32 754.314C7299.31 629.857 7150.57 564.05 6976.11 564.05L6976.06 564ZM7305.57 1101.86H6631.38C6665.23 910.399 6800.79 779.936 6971.53 779.936C7181.62 779.936 7280.22 939.774 7305.57 1101.86Z" fill="#362FA7"/>
<path d="M8661.79 707.591C8568.66 616.298 8432.09 570 8255.95 570C8112.59 570 7989.55 594.926 7857.22 650.833C7823.42 664.347 7787.17 702.586 7787.17 754.94C7787.17 814.101 7839.19 864.052 7900.72 864.052C7914.7 864.052 7930.79 860.799 7946 854.843L7947.33 854.292C8041.88 812.8 8136.9 792.629 8237.68 792.629C8379.92 792.629 8549.21 840.227 8552.17 1065.91C8469.47 1045.44 8366.34 1027.57 8226.34 1027.57C8068.69 1027.57 7935.69 1062.81 7841.7 1129.42C7740.51 1201.2 7687 1307.16 7687 1435.74V1440.19C7687 1699.41 7926.24 1835 8162.58 1835C8344.74 1835 8469.62 1767.53 8552.22 1692.4V1705.82C8552.22 1771.84 8603.99 1821.59 8672.61 1821.59C8741.23 1821.59 8793 1769.88 8793 1701.31V1069.61C8793 914.704 8748.84 792.879 8661.74 707.491L8661.79 707.591ZM8554.52 1266.27V1351C8554.52 1508.97 8400.7 1628.09 8196.73 1628.09C8018.19 1628.09 7936.86 1527.28 7936.86 1433.59V1429.13C7936.86 1367.87 7961.83 1319.07 8011.04 1283.98C8064.5 1245.89 8145.27 1225.72 8244.52 1225.72C8348.82 1225.72 8450.47 1239.04 8554.47 1266.32L8554.52 1266.27Z" fill="#362FA7"/>
<path d="M3324.07 180H2727.86C2660.15 180 2603 237.088 2603 304.684V1699.32C2603 1766.91 2660.2 1824 2727.86 1824C2795.51 1824 2855.01 1768.06 2855.01 1699.32V1205.89H3258.5L3695.68 1762.96C3734.25 1813.39 3778.49 1823.95 3808.8 1823.95C3876.51 1823.95 3935.95 1766.71 3935.95 1701.52C3935.95 1661.39 3914.57 1632.57 3898.09 1614.21L3537.55 1159.06C3647.15 1130.24 3739.15 1080.6 3805.89 1013.96C3892.22 927.701 3936 816.726 3936 683.987V679.534C3936 549.197 3888.6 430.918 3802.52 346.562C3692.97 239.14 3523.06 180 3324.12 180H3324.07ZM3681.59 690.742C3681.59 864.408 3535 976.633 3308.1 976.633H2854.96V413.756H3310.34C3546.23 413.756 3681.54 513.073 3681.54 686.239V690.691L3681.59 690.742Z" fill="#0EE5F2"/>
<path d="M5157.66 575C5087.85 575 5035.21 627.627 5035.21 697.413V1281.96C5035.21 1473.91 4905.18 1607.98 4719.04 1607.98C4532.9 1607.98 4430.13 1494.02 4430.13 1295.37V697.413C4430.13 629.928 4374.18 575 4305.44 575C4236.71 575 4183 627.627 4183 697.413V1337.74C4183 1639.8 4373.77 1835 4669 1835C4819.12 1835 4939.83 1784.27 5035.16 1680.57V1699.18C5035.16 1767.82 5088.92 1821.59 5157.61 1821.59C5226.29 1821.59 5280 1767.82 5280 1699.18V697.413C5280 628.778 5226.24 575 5157.61 575H5157.66Z" fill="#0EE5F2"/>
<path d="M6158.65 809.421C6222.25 809.421 6274 759.605 6274 698.408C6274 637.211 6221.18 587.395 6158.65 587.395H5890.84V351.144C5890.84 284.906 5833.86 229 5766.45 229C5699.04 229 5644.29 282.66 5644.29 351.144V587.395H5585.06C5522.68 587.395 5472 637.211 5472 698.408C5472 759.605 5524.82 809.421 5585.06 809.421H5644.29V1468.66C5644.29 1697.67 5778.04 1829 6011.33 1829C6080.62 1829 6139.64 1818.32 6196.93 1795.36C6241.72 1778.29 6269.48 1740.15 6269.48 1695.73C6269.48 1635.73 6219.76 1586.91 6158.65 1586.91C6149.65 1586.91 6141.21 1589.1 6130.49 1591.85C6113.97 1596.09 6089.06 1602.53 6052.1 1602.53C5940.56 1602.53 5890.84 1554.36 5890.84 1446.45V809.471H6158.65V809.421Z" fill="#0EE5F2"/>
<path d="M6976.06 564C6810.16 564 6657.49 630.457 6546.11 751.111C6437.07 869.263 6377 1028.6 6377 1199.8V1204.25C6377 1383.41 6441.75 1546.4 6559.4 1663.25C6674.14 1777.25 6830.16 1840 6998.76 1840C7187.01 1840 7331.13 1783.45 7465.88 1656.59C7490.97 1634.72 7504.77 1605.65 7504.77 1574.72C7504.77 1514.57 7453.97 1465.63 7391.56 1465.63C7365.64 1465.63 7341.77 1474.89 7318.56 1493.95L7317.23 1495.1C7223.41 1580.08 7123.64 1619.66 7003.35 1619.66C6907.69 1619.66 6818.46 1586.88 6752.08 1527.38C6689.21 1471.03 6647.92 1392.96 6631.38 1299.93H7439.25C7504.21 1299.93 7557 1247.99 7557 1184.18C7557 1019.99 7503.5 867.362 7406.32 754.314C7299.31 629.857 7150.57 564.05 6976.11 564.05L6976.06 564ZM7305.57 1101.86H6631.38C6665.23 910.399 6800.79 779.936 6971.53 779.936C7181.62 779.936 7280.22 939.774 7305.57 1101.86Z" fill="#0EE5F2"/>
<path d="M8661.79 707.591C8568.66 616.298 8432.09 570 8255.95 570C8112.59 570 7989.55 594.926 7857.22 650.833C7823.42 664.347 7787.17 702.586 7787.17 754.94C7787.17 814.101 7839.19 864.052 7900.72 864.052C7914.7 864.052 7930.79 860.799 7946 854.843L7947.33 854.292C8041.88 812.8 8136.9 792.629 8237.68 792.629C8379.92 792.629 8549.21 840.227 8552.17 1065.91C8469.47 1045.44 8366.34 1027.57 8226.34 1027.57C8068.69 1027.57 7935.69 1062.81 7841.7 1129.42C7740.51 1201.2 7687 1307.16 7687 1435.74V1440.19C7687 1699.41 7926.24 1835 8162.58 1835C8344.74 1835 8469.62 1767.53 8552.22 1692.4V1705.82C8552.22 1771.84 8603.99 1821.59 8672.61 1821.59C8741.23 1821.59 8793 1769.88 8793 1701.31V1069.61C8793 914.704 8748.84 792.879 8661.74 707.491L8661.79 707.591ZM8554.52 1266.27V1351C8554.52 1508.97 8400.7 1628.09 8196.73 1628.09C8018.19 1628.09 7936.86 1527.28 7936.86 1433.59V1429.13C7936.86 1367.87 7961.83 1319.07 8011.04 1283.98C8064.5 1245.89 8145.27 1225.72 8244.52 1225.72C8348.82 1225.72 8450.47 1239.04 8554.47 1266.32L8554.52 1266.27Z" fill="#0EE5F2"/>
<path d="M3324.07 180H2727.86C2660.15 180 2603 237.088 2603 304.684V1699.32C2603 1766.91 2660.2 1824 2727.86 1824C2795.51 1824 2855.01 1768.06 2855.01 1699.32V1205.89H3258.5L3695.68 1762.96C3734.25 1813.39 3778.49 1823.95 3808.8 1823.95C3876.51 1823.95 3935.95 1766.71 3935.95 1701.52C3935.95 1661.39 3914.57 1632.57 3898.09 1614.21L3537.55 1159.06C3647.15 1130.24 3739.15 1080.6 3805.89 1013.96C3892.22 927.701 3936 816.726 3936 683.987V679.534C3936 549.197 3888.6 430.918 3802.52 346.562C3692.97 239.14 3523.06 180 3324.12 180H3324.07ZM3681.59 690.742C3681.59 864.408 3535 976.633 3308.1 976.633H2854.96V413.756H3310.34C3546.23 413.756 3681.54 513.073 3681.54 686.239V690.691L3681.59 690.742Z" fill="#362FA7"/>
<path d="M5157.66 575C5087.85 575 5035.21 627.627 5035.21 697.413V1281.96C5035.21 1473.91 4905.18 1607.98 4719.04 1607.98C4532.9 1607.98 4430.13 1494.02 4430.13 1295.37V697.413C4430.13 629.928 4374.18 575 4305.44 575C4236.71 575 4183 627.627 4183 697.413V1337.74C4183 1639.8 4373.77 1835 4669 1835C4819.12 1835 4939.83 1784.27 5035.16 1680.57V1699.18C5035.16 1767.82 5088.92 1821.59 5157.61 1821.59C5226.29 1821.59 5280 1767.82 5280 1699.18V697.413C5280 628.778 5226.24 575 5157.61 575H5157.66Z" fill="#362FA7"/>
<path d="M6158.65 809.421C6222.25 809.421 6274 759.605 6274 698.408C6274 637.211 6221.18 587.395 6158.65 587.395H5890.84V351.144C5890.84 284.906 5833.86 229 5766.45 229C5699.04 229 5644.29 282.66 5644.29 351.144V587.395H5585.06C5522.68 587.395 5472 637.211 5472 698.408C5472 759.605 5524.82 809.421 5585.06 809.421H5644.29V1468.66C5644.29 1697.67 5778.04 1829 6011.33 1829C6080.62 1829 6139.64 1818.32 6196.93 1795.36C6241.72 1778.29 6269.48 1740.15 6269.48 1695.73C6269.48 1635.73 6219.76 1586.91 6158.65 1586.91C6149.65 1586.91 6141.21 1589.1 6130.49 1591.85C6113.97 1596.09 6089.06 1602.53 6052.1 1602.53C5940.56 1602.53 5890.84 1554.36 5890.84 1446.45V809.471H6158.65V809.421Z" fill="#362FA7"/>
<path d="M6976.06 564C6810.16 564 6657.49 630.457 6546.11 751.111C6437.07 869.263 6377 1028.6 6377 1199.8V1204.25C6377 1383.41 6441.75 1546.4 6559.4 1663.25C6674.14 1777.25 6830.16 1840 6998.76 1840C7187.01 1840 7331.13 1783.45 7465.88 1656.59C7490.97 1634.72 7504.77 1605.65 7504.77 1574.72C7504.77 1514.57 7453.97 1465.63 7391.56 1465.63C7365.64 1465.63 7341.77 1474.89 7318.56 1493.95L7317.23 1495.1C7223.41 1580.08 7123.64 1619.66 7003.35 1619.66C6907.69 1619.66 6818.46 1586.88 6752.08 1527.38C6689.21 1471.03 6647.92 1392.96 6631.38 1299.93H7439.25C7504.21 1299.93 7557 1247.99 7557 1184.18C7557 1019.99 7503.5 867.362 7406.32 754.314C7299.31 629.857 7150.57 564.05 6976.11 564.05L6976.06 564ZM7305.57 1101.86H6631.38C6665.23 910.399 6800.79 779.936 6971.53 779.936C7181.62 779.936 7280.22 939.774 7305.57 1101.86Z" fill="#362FA7"/>
<path d="M8661.79 707.591C8568.66 616.298 8432.09 570 8255.95 570C8112.59 570 7989.55 594.926 7857.22 650.833C7823.42 664.347 7787.17 702.586 7787.17 754.94C7787.17 814.101 7839.19 864.052 7900.72 864.052C7914.7 864.052 7930.79 860.799 7946 854.843L7947.33 854.292C8041.88 812.8 8136.9 792.629 8237.68 792.629C8379.92 792.629 8549.21 840.227 8552.17 1065.91C8469.47 1045.44 8366.34 1027.57 8226.34 1027.57C8068.69 1027.57 7935.69 1062.81 7841.7 1129.42C7740.51 1201.2 7687 1307.16 7687 1435.74V1440.19C7687 1699.41 7926.24 1835 8162.58 1835C8344.74 1835 8469.62 1767.53 8552.22 1692.4V1705.82C8552.22 1771.84 8603.99 1821.59 8672.61 1821.59C8741.23 1821.59 8793 1769.88 8793 1701.31V1069.61C8793 914.704 8748.84 792.879 8661.74 707.491L8661.79 707.591ZM8554.52 1266.27V1351C8554.52 1508.97 8400.7 1628.09 8196.73 1628.09C8018.19 1628.09 7936.86 1527.28 7936.86 1433.59V1429.13C7936.86 1367.87 7961.83 1319.07 8011.04 1283.98C8064.5 1245.89 8145.27 1225.72 8244.52 1225.72C8348.82 1225.72 8450.47 1239.04 8554.47 1266.32L8554.52 1266.27Z" fill="#362FA7"/>
<path d="M3324.07 180H2727.86C2660.15 180 2603 237.088 2603 304.684V1699.32C2603 1766.91 2660.2 1824 2727.86 1824C2795.51 1824 2855.01 1768.06 2855.01 1699.32V1205.89H3258.5L3695.68 1762.96C3734.25 1813.39 3778.49 1823.95 3808.8 1823.95C3876.51 1823.95 3935.95 1766.71 3935.95 1701.52C3935.95 1661.39 3914.57 1632.57 3898.09 1614.21L3537.55 1159.06C3647.15 1130.24 3739.15 1080.6 3805.89 1013.96C3892.22 927.701 3936 816.726 3936 683.987V679.534C3936 549.197 3888.6 430.918 3802.52 346.562C3692.97 239.14 3523.06 180 3324.12 180H3324.07ZM3681.59 690.742C3681.59 864.408 3535 976.633 3308.1 976.633H2854.96V413.756H3310.34C3546.23 413.756 3681.54 513.073 3681.54 686.239V690.691L3681.59 690.742Z" fill="#0EE5F2"/>
<path d="M5157.66 575C5087.85 575 5035.21 627.627 5035.21 697.413V1281.96C5035.21 1473.91 4905.18 1607.98 4719.04 1607.98C4532.9 1607.98 4430.13 1494.02 4430.13 1295.37V697.413C4430.13 629.928 4374.18 575 4305.44 575C4236.71 575 4183 627.627 4183 697.413V1337.74C4183 1639.8 4373.77 1835 4669 1835C4819.12 1835 4939.83 1784.27 5035.16 1680.57V1699.18C5035.16 1767.82 5088.92 1821.59 5157.61 1821.59C5226.29 1821.59 5280 1767.82 5280 1699.18V697.413C5280 628.778 5226.24 575 5157.61 575H5157.66Z" fill="#0EE5F2"/>
<path d="M6158.65 809.421C6222.25 809.421 6274 759.605 6274 698.408C6274 637.211 6221.18 587.395 6158.65 587.395H5890.84V351.144C5890.84 284.906 5833.86 229 5766.45 229C5699.04 229 5644.29 282.66 5644.29 351.144V587.395H5585.06C5522.68 587.395 5472 637.211 5472 698.408C5472 759.605 5524.82 809.421 5585.06 809.421H5644.29V1468.66C5644.29 1697.67 5778.04 1829 6011.33 1829C6080.62 1829 6139.64 1818.32 6196.93 1795.36C6241.72 1778.29 6269.48 1740.15 6269.48 1695.73C6269.48 1635.73 6219.76 1586.91 6158.65 1586.91C6149.65 1586.91 6141.21 1589.1 6130.49 1591.85C6113.97 1596.09 6089.06 1602.53 6052.1 1602.53C5940.56 1602.53 5890.84 1554.36 5890.84 1446.45V809.471H6158.65V809.421Z" fill="#0EE5F2"/>
<path d="M6976.06 564C6810.16 564 6657.49 630.457 6546.11 751.111C6437.07 869.263 6377 1028.6 6377 1199.8V1204.25C6377 1383.41 6441.75 1546.4 6559.4 1663.25C6674.14 1777.25 6830.16 1840 6998.76 1840C7187.01 1840 7331.13 1783.45 7465.88 1656.59C7490.97 1634.72 7504.77 1605.65 7504.77 1574.72C7504.77 1514.57 7453.97 1465.63 7391.56 1465.63C7365.64 1465.63 7341.77 1474.89 7318.56 1493.95L7317.23 1495.1C7223.41 1580.08 7123.64 1619.66 7003.35 1619.66C6907.69 1619.66 6818.46 1586.88 6752.08 1527.38C6689.21 1471.03 6647.92 1392.96 6631.38 1299.93H7439.25C7504.21 1299.93 7557 1247.99 7557 1184.18C7557 1019.99 7503.5 867.362 7406.32 754.314C7299.31 629.857 7150.57 564.05 6976.11 564.05L6976.06 564ZM7305.57 1101.86H6631.38C6665.23 910.399 6800.79 779.936 6971.53 779.936C7181.62 779.936 7280.22 939.774 7305.57 1101.86Z" fill="#0EE5F2"/>
<path d="M8661.79 707.591C8568.66 616.298 8432.09 570 8255.95 570C8112.59 570 7989.55 594.926 7857.22 650.833C7823.42 664.347 7787.17 702.586 7787.17 754.94C7787.17 814.101 7839.19 864.052 7900.72 864.052C7914.7 864.052 7930.79 860.799 7946 854.843L7947.33 854.292C8041.88 812.8 8136.9 792.629 8237.68 792.629C8379.92 792.629 8549.21 840.227 8552.17 1065.91C8469.47 1045.44 8366.34 1027.57 8226.34 1027.57C8068.69 1027.57 7935.69 1062.81 7841.7 1129.42C7740.51 1201.2 7687 1307.16 7687 1435.74V1440.19C7687 1699.41 7926.24 1835 8162.58 1835C8344.74 1835 8469.62 1767.53 8552.22 1692.4V1705.82C8552.22 1771.84 8603.99 1821.59 8672.61 1821.59C8741.23 1821.59 8793 1769.88 8793 1701.31V1069.61C8793 914.704 8748.84 792.879 8661.74 707.491L8661.79 707.591ZM8554.52 1266.27V1351C8554.52 1508.97 8400.7 1628.09 8196.73 1628.09C8018.19 1628.09 7936.86 1527.28 7936.86 1433.59V1429.13C7936.86 1367.87 7961.83 1319.07 8011.04 1283.98C8064.5 1245.89 8145.27 1225.72 8244.52 1225.72C8348.82 1225.72 8450.47 1239.04 8554.47 1266.32L8554.52 1266.27Z" fill="#0EE5F2"/>
<path d="M3324.07 180H2727.86C2660.15 180 2603 237.088 2603 304.684V1699.32C2603 1766.91 2660.2 1824 2727.86 1824C2795.51 1824 2855.01 1768.06 2855.01 1699.32V1205.89H3258.5L3695.68 1762.96C3734.25 1813.39 3778.49 1823.95 3808.8 1823.95C3876.51 1823.95 3935.95 1766.71 3935.95 1701.52C3935.95 1661.39 3914.57 1632.57 3898.09 1614.21L3537.55 1159.06C3647.15 1130.24 3739.15 1080.6 3805.89 1013.96C3892.22 927.701 3936 816.726 3936 683.987V679.534C3936 549.197 3888.6 430.918 3802.52 346.562C3692.97 239.14 3523.06 180 3324.12 180H3324.07ZM3681.59 690.742C3681.59 864.408 3535 976.633 3308.1 976.633H2854.96V413.756H3310.34C3546.23 413.756 3681.54 513.073 3681.54 686.239V690.691L3681.59 690.742Z" fill="#362FA7"/>
<path d="M5157.66 575C5087.85 575 5035.21 627.627 5035.21 697.413V1281.96C5035.21 1473.91 4905.18 1607.98 4719.04 1607.98C4532.9 1607.98 4430.13 1494.02 4430.13 1295.37V697.413C4430.13 629.928 4374.18 575 4305.44 575C4236.71 575 4183 627.627 4183 697.413V1337.74C4183 1639.8 4373.77 1835 4669 1835C4819.12 1835 4939.83 1784.27 5035.16 1680.57V1699.18C5035.16 1767.82 5088.92 1821.59 5157.61 1821.59C5226.29 1821.59 5280 1767.82 5280 1699.18V697.413C5280 628.778 5226.24 575 5157.61 575H5157.66Z" fill="#362FA7"/>
<path d="M6158.65 809.421C6222.25 809.421 6274 759.605 6274 698.408C6274 637.211 6221.18 587.395 6158.65 587.395H5890.84V351.144C5890.84 284.906 5833.86 229 5766.45 229C5699.04 229 5644.29 282.66 5644.29 351.144V587.395H5585.06C5522.68 587.395 5472 637.211 5472 698.408C5472 759.605 5524.82 809.421 5585.06 809.421H5644.29V1468.66C5644.29 1697.67 5778.04 1829 6011.33 1829C6080.62 1829 6139.64 1818.32 6196.93 1795.36C6241.72 1778.29 6269.48 1740.15 6269.48 1695.73C6269.48 1635.73 6219.76 1586.91 6158.65 1586.91C6149.65 1586.91 6141.21 1589.1 6130.49 1591.85C6113.97 1596.09 6089.06 1602.53 6052.1 1602.53C5940.56 1602.53 5890.84 1554.36 5890.84 1446.45V809.471H6158.65V809.421Z" fill="#362FA7"/>
<path d="M6976.06 564C6810.16 564 6657.49 630.457 6546.11 751.111C6437.07 869.263 6377 1028.6 6377 1199.8V1204.25C6377 1383.41 6441.75 1546.4 6559.4 1663.25C6674.14 1777.25 6830.16 1840 6998.76 1840C7187.01 1840 7331.13 1783.45 7465.88 1656.59C7490.97 1634.72 7504.77 1605.65 7504.77 1574.72C7504.77 1514.57 7453.97 1465.63 7391.56 1465.63C7365.64 1465.63 7341.77 1474.89 7318.56 1493.95L7317.23 1495.1C7223.41 1580.08 7123.64 1619.66 7003.35 1619.66C6907.69 1619.66 6818.46 1586.88 6752.08 1527.38C6689.21 1471.03 6647.92 1392.96 6631.38 1299.93H7439.25C7504.21 1299.93 7557 1247.99 7557 1184.18C7557 1019.99 7503.5 867.362 7406.32 754.314C7299.31 629.857 7150.57 564.05 6976.11 564.05L6976.06 564ZM7305.57 1101.86H6631.38C6665.23 910.399 6800.79 779.936 6971.53 779.936C7181.62 779.936 7280.22 939.774 7305.57 1101.86Z" fill="#362FA7"/>
<path d="M8661.79 707.591C8568.66 616.298 8432.09 570 8255.95 570C8112.59 570 7989.55 594.926 7857.22 650.833C7823.42 664.347 7787.17 702.586 7787.17 754.94C7787.17 814.101 7839.19 864.052 7900.72 864.052C7914.7 864.052 7930.79 860.799 7946 854.843L7947.33 854.292C8041.88 812.8 8136.9 792.629 8237.68 792.629C8379.92 792.629 8549.21 840.227 8552.17 1065.91C8469.47 1045.44 8366.34 1027.57 8226.34 1027.57C8068.69 1027.57 7935.69 1062.81 7841.7 1129.42C7740.51 1201.2 7687 1307.16 7687 1435.74V1440.19C7687 1699.41 7926.24 1835 8162.58 1835C8344.74 1835 8469.62 1767.53 8552.22 1692.4V1705.82C8552.22 1771.84 8603.99 1821.59 8672.61 1821.59C8741.23 1821.59 8793 1769.88 8793 1701.31V1069.61C8793 914.704 8748.84 792.879 8661.74 707.491L8661.79 707.591ZM8554.52 1266.27V1351C8554.52 1508.97 8400.7 1628.09 8196.73 1628.09C8018.19 1628.09 7936.86 1527.28 7936.86 1433.59V1429.13C7936.86 1367.87 7961.83 1319.07 8011.04 1283.98C8064.5 1245.89 8145.27 1225.72 8244.52 1225.72C8348.82 1225.72 8450.47 1239.04 8554.47 1266.32L8554.52 1266.27Z" fill="#362FA7"/>
<path d="M793.264 228.49C431.418 338.27 244.869 786.691 368.472 1249.36C480.92 1670.28 880.037 1892.27 1296.95 1765.78C1520.7 1697.9 1694.98 1562.79 1856.27 1331.05C1944.52 1380.13 2015.76 1419.76 2023.37 1423.99C2066.1 1447.75 2120.55 1431.23 2145.01 1387.09C2157.25 1365.08 2159.75 1340.28 2153.81 1318.04L2037.8 883.78C2024.99 835.845 1976.05 808.623 1928.57 823.027L1498.44 953.523C1476.42 960.205 1456.67 975.413 1444.43 997.424C1419.85 1041.61 1434.54 1096.59 1477.23 1120.23C1484.34 1124.18 1545.29 1158.08 1623.59 1201.63C1476.94 1403.49 1347.14 1468.88 1227.34 1505.23C953.173 1588.41 700.535 1447.89 626.588 1171.09C543.432 859.819 649.475 553.854 862.887 489.107C1014.87 442.997 1100.63 508.734 1112.75 554.136C1126.77 606.581 1079.28 705.13 932.494 749.662L1002.1 1010.22C1283.86 924.736 1407.67 692.712 1375.2 504.932C1374.75 495.217 1373.47 485.457 1370.85 475.799C1368.24 466.141 1364.55 457.144 1360.15 448.596C1294.96 270.707 1075.02 143.009 793.264 228.49Z" fill="url(#paint0_linear_210_45)"/>
<path d="M930.846 750.287C823.695 782.631 725.318 761.571 639.957 716.928C607.812 798.709 592.375 895.401 597.686 998.277C715.3 1042.06 850.081 1056.17 1000.8 1010.67C1297.04 921.253 1420.66 669.241 1369.08 477.254C1369.08 477.254 1318.02 633.418 930.846 750.287Z" fill="url(#paint1_linear_210_45)"/>
<path d="M253.54 399.224C188.47 437.07 163.595 520.771 198.817 586.087C205.986 599.548 295.39 762.793 452.051 902.374C466.081 793.43 497.492 691.666 544.481 603.066C475.7 522.419 435.651 450.502 434.681 448.587C399.669 383.441 318.587 361.417 253.523 399.162L253.54 399.224Z" fill="#6F6DEE"/>
<path d="M793.264 228.49C431.418 338.27 244.869 786.691 368.472 1249.36C480.92 1670.28 880.037 1892.27 1296.95 1765.78C1520.7 1697.9 1694.98 1562.79 1856.27 1331.05C1944.52 1380.13 2015.76 1419.76 2023.37 1423.99C2066.1 1447.75 2120.55 1431.23 2145.01 1387.09C2157.25 1365.08 2159.75 1340.28 2153.81 1318.04L2037.8 883.78C2024.99 835.845 1976.05 808.623 1928.57 823.027L1498.44 953.523C1476.42 960.205 1456.67 975.413 1444.43 997.424C1419.85 1041.61 1434.54 1096.59 1477.23 1120.23C1484.34 1124.18 1545.29 1158.08 1623.59 1201.63C1476.94 1403.49 1347.14 1468.88 1227.34 1505.23C953.173 1588.41 700.535 1447.89 626.588 1171.09C543.432 859.819 649.475 553.854 862.887 489.107C1014.87 442.997 1100.63 508.734 1112.75 554.136C1126.77 606.581 1079.28 705.13 932.494 749.662L1002.1 1010.22C1283.86 924.735 1407.67 692.712 1375.2 504.932C1374.75 495.217 1373.47 485.457 1370.85 475.799C1368.24 466.141 1364.55 457.144 1360.15 448.596C1294.96 270.707 1075.02 143.009 793.264 228.49Z" fill="url(#paint2_linear_210_45)"/>
<path d="M930.846 750.287C823.695 782.631 725.318 761.571 639.957 716.928C607.812 798.709 592.375 895.401 597.686 998.277C715.3 1042.06 850.081 1056.17 1000.8 1010.67C1297.04 921.253 1420.66 669.241 1369.08 477.254C1369.08 477.254 1318.02 633.418 930.846 750.287Z" fill="url(#paint3_linear_210_45)"/>
<defs>
<linearGradient id="paint0_linear_210_45" x1="2400.94" y1="929.663" x2="-310.74" y2="1060.78" gradientUnits="userSpaceOnUse">
<stop offset="0.231667" stop-color="#6B14C8"/>
<stop offset="0.826667" stop-color="#362FA1"/>
</linearGradient>
<linearGradient id="paint1_linear_210_45" x1="997.693" y1="377.592" x2="1270.68" y2="881.963" gradientUnits="userSpaceOnUse">
<stop offset="0.206667" stop-color="#362FA1"/>
<stop offset="0.826667" stop-color="#4942BC"/>
</linearGradient>
<linearGradient id="paint2_linear_210_45" x1="2400.94" y1="929.663" x2="-310.74" y2="1060.78" gradientUnits="userSpaceOnUse">
<stop offset="0.284545" stop-color="#362FA7"/>
<stop offset="0.549545" stop-color="#6F6DEE"/>
</linearGradient>
<linearGradient id="paint3_linear_210_45" x1="552.99" y1="873.287" x2="1256.37" y2="869.838" gradientUnits="userSpaceOnUse">
<stop offset="0.329545" stop-color="#362FA1"/>
<stop offset="0.644545" stop-color="#4942BC"/>
</linearGradient>
</defs>
</svg>
